<svg width="928" height="320" viewBox="0 0 928 320" fill="none" xmlns="http://www.w3.org/2000/svg">
<path d="M10.3007 141.628V175.147L80.972 104.278V70.2798L10.3007 141.628Z" fill="#0B0E11"/>
<path d="M10.3007 194.426V227.581L80.972 157.482V123.853L10.3007 194.426Z" fill="#F5B72E"/>
<path d="M11.4404 68V120.434L63.874 68H11.4404Z" fill="#F5B72E"/>
<path d="M80.9718 231V178.566L28.5382 231H80.9718Z" fill="#0B0E11"/>
<path d="M14 53.5C14 57.366 10.866 60.5 7 60.5C3.13401 60.5 0 57.366 0 53.5C0 49.634 3.13401 46 7 46C10.866 46 14 49.634 14 53.5Z" fill="#0B0E11"/>
<path d="M123 46H6V60.5L70 60C92.5 60 135.9 61.3 137.5 98.5C139.1 135.7 116.5 148 105 149.5H131.5C150.333 150 188.1 140.5 188.5 98.5C188.9 56.5 145 46 123 46Z" fill="#0B0E11"/>
<path d="M14 246.018C14 242.152 10.866 239.018 7 239.018C3.13401 239.018 0 242.152 0 246.018C0 249.884 3.13401 253.518 7 253.518C10.866 253.518 14 249.884 14 246.018Z" fill="#0B0E11"/>
<path d="M123 253.518H6V239.018L70 239.518C92.5 239.518 135.9 238.218 137.5 201.018C139.1 163.818 116.5 151 105 149.5H131.5C150.333 149 188.1 159.018 188.5 201.018C188.9 243.018 145 253.518 123 253.518Z" fill="#0B0E11"/>
<circle cx="134.5" cy="149.5" r="3.5" fill="#0B0E11"/>
<path d="M46 0C26.67 0 11 17.0132 11 38H81C81 17.0132 65.33 0 46 0Z" fill="#0B0E11"/>
<path d="M55.1502 11.4729C54.8665 11.7486 54.6537 12.1132 54.5459 12.5879C53.8034 15.8562 57.9818 17.4245 60.4957 19.6411C63.8746 22.6205 66.6356 27.144 68.2099 30.353C68.7318 31.4168 70.1711 32.7648 71.3545 32.704C74.1952 32.5582 73.7763 28.9262 72.786 26.2596C70.9758 21.3852 67.2846 16.9263 63.7899 13.9277C61.3224 11.8105 57.4821 9.20724 55.1502 11.4729Z" fill="white"/>
<path d="M46 300C26.67 300 11 282.987 11 262H81C81 282.987 65.33 300 46 300Z" fill="#0B0E11"/>
<path d="M55.1502 288.527C54.8665 288.251 54.6537 287.887 54.5459 287.412C53.8034 284.144 57.9818 282.575 60.4957 280.359C63.8746 277.379 66.6356 272.856 68.2099 269.647C68.7318 268.583 70.1711 267.235 71.3545 267.296C74.1952 267.442 73.7763 271.074 72.786 273.74C70.9758 278.615 67.2846 283.074 63.7899 286.072C61.3224 288.189 57.4821 290.793 55.1502 288.527Z" fill="white"/>
<path d="M237.056 256.065C230.297 256.065 224.226 254.751 218.844 252.122C213.462 249.494 209.269 245.927 206.265 241.421C203.261 236.915 201.759 231.845 201.759 226.213C201.759 219.454 203.511 214.134 207.016 210.254C210.521 206.249 216.216 203.433 224.101 201.805C231.987 200.053 242.438 199.177 255.456 199.177H265.406V213.821H255.643C249.26 213.821 244.065 214.197 240.06 214.948C236.18 215.574 233.364 216.7 231.611 218.327C229.984 219.955 229.171 222.208 229.171 225.086C229.171 228.591 230.36 231.47 232.738 233.723C235.241 235.976 238.808 237.102 243.44 237.102C247.069 237.102 250.261 236.289 253.015 234.662C255.894 232.909 258.147 230.594 259.774 227.715C261.401 224.711 262.215 221.331 262.215 217.576V195.985C262.215 190.478 260.963 186.598 258.46 184.345C255.956 181.967 251.701 180.777 245.693 180.777C242.313 180.777 238.621 181.216 234.615 182.092C230.735 182.843 226.417 184.157 221.661 186.034C218.907 187.286 216.466 187.599 214.338 186.973C212.21 186.222 210.583 184.971 209.457 183.218C208.33 181.341 207.767 179.338 207.767 177.21C207.767 174.957 208.393 172.829 209.645 170.827C210.896 168.699 212.961 167.134 215.84 166.133C221.723 163.755 227.23 162.128 232.362 161.251C237.619 160.375 242.438 159.937 246.819 159.937C256.457 159.937 264.342 161.377 270.476 164.255C276.734 167.009 281.428 171.327 284.557 177.21C287.686 182.968 289.251 190.415 289.251 199.552V241.233C289.251 245.864 288.124 249.431 285.871 251.935C283.618 254.438 280.364 255.69 276.108 255.69C271.852 255.69 268.535 254.438 266.157 251.935C263.904 249.431 262.778 245.864 262.778 241.233V234.286L264.092 235.413C263.341 239.668 261.714 243.361 259.211 246.49C256.832 249.494 253.766 251.872 250.011 253.624C246.256 255.252 241.938 256.065 237.056 256.065ZM325.043 255.69C320.287 255.69 316.657 254.438 314.154 251.935C311.65 249.431 310.399 245.864 310.399 241.233V174.582C310.399 169.951 311.588 166.446 313.966 164.068C316.469 161.564 319.911 160.313 324.292 160.313C328.798 160.313 332.24 161.564 334.619 164.068C336.997 166.446 338.186 169.951 338.186 174.582V184.345H336.308C337.81 176.835 341.127 171.014 346.259 166.884C351.391 162.753 358.025 160.438 366.161 159.937C369.29 159.687 371.668 160.5 373.295 162.378C375.047 164.13 375.986 167.072 376.111 171.202C376.362 175.082 375.548 178.149 373.671 180.402C371.918 182.655 368.914 184.032 364.659 184.532L360.34 184.908C353.206 185.534 347.886 187.599 344.382 191.104C341.002 194.608 339.312 199.678 339.312 206.311V241.233C339.312 245.864 338.061 249.431 335.557 251.935C333.179 254.438 329.674 255.69 325.043 255.69ZM444.661 256.065C437.276 256.065 430.704 254.25 424.947 250.62C419.314 246.865 415.559 241.921 413.682 235.788L415.747 229.592V241.233C415.747 245.864 414.558 249.431 412.18 251.935C409.802 254.438 406.36 255.69 401.854 255.69C397.348 255.69 393.843 254.438 391.34 251.935C388.961 249.431 387.772 245.864 387.772 241.233V134.403C387.772 129.647 388.961 126.08 391.34 123.701C393.843 121.198 397.41 119.946 402.041 119.946C406.547 119.946 409.989 121.198 412.368 123.701C414.871 126.08 416.123 129.647 416.123 134.403V178.9H413.87C415.872 173.267 419.69 168.699 425.322 165.194C430.955 161.69 437.401 159.937 444.661 159.937C452.796 159.937 459.868 161.877 465.876 165.757C471.884 169.638 476.578 175.145 479.958 182.279C483.337 189.414 485.027 197.925 485.027 207.813C485.027 217.702 483.337 226.276 479.958 233.535C476.578 240.795 471.822 246.365 465.689 250.245C459.681 254.125 452.671 256.065 444.661 256.065ZM436.212 234.849C440.217 234.849 443.722 233.848 446.726 231.845C449.855 229.843 452.233 226.901 453.86 223.021C455.613 219.016 456.489 213.947 456.489 207.813C456.489 198.676 454.611 191.98 450.856 187.724C447.101 183.343 442.22 181.153 436.212 181.153C432.206 181.153 428.639 182.092 425.51 183.969C422.506 185.847 420.128 188.788 418.376 192.793C416.623 196.674 415.747 201.68 415.747 207.813C415.747 216.951 417.625 223.772 421.38 228.278C425.135 232.659 430.079 234.849 436.212 234.849ZM550.242 256.065C539.353 256.065 529.965 254.125 522.08 250.245C514.319 246.24 508.311 240.67 504.056 233.535C499.925 226.276 497.86 217.764 497.86 208.001C497.86 198.489 499.862 190.165 503.868 183.03C507.873 175.771 513.443 170.138 520.578 166.133C527.837 162.002 536.036 159.937 545.173 159.937C551.807 159.937 557.815 161.064 563.197 163.317C568.579 165.445 573.21 168.574 577.09 172.704C580.97 176.71 583.912 181.654 585.915 187.536C587.917 193.294 588.919 199.74 588.919 206.875C588.919 209.253 588.168 211.068 586.666 212.319C585.164 213.446 582.973 214.009 580.094 214.009H521.141V199.365H568.454L565.45 201.993C565.45 196.861 564.699 192.606 563.197 189.226C561.695 185.722 559.504 183.093 556.626 181.341C553.872 179.588 550.43 178.712 546.299 178.712C541.668 178.712 537.725 179.776 534.471 181.904C531.217 184.032 528.713 187.098 526.961 191.104C525.209 195.109 524.333 199.928 524.333 205.56V207.062C524.333 216.575 526.523 223.584 530.904 228.09C535.41 232.596 542.044 234.849 550.805 234.849C553.809 234.849 557.251 234.474 561.132 233.723C565.012 232.972 568.642 231.783 572.021 230.156C574.9 228.779 577.466 228.341 579.719 228.841C581.972 229.217 583.724 230.218 584.976 231.845C586.227 233.473 586.916 235.35 587.041 237.478C587.291 239.606 586.853 241.734 585.727 243.861C584.6 245.864 582.723 247.554 580.094 248.931C575.839 251.309 571.02 253.061 565.638 254.188C560.381 255.439 555.249 256.065 550.242 256.065Z" fill="#0B0E11"/>
<path d="M616.486 254C612.731 254 609.664 253.249 607.286 251.747C604.908 250.12 603.28 247.992 602.404 245.363C601.653 242.61 601.653 239.606 602.404 236.351C603.28 233.097 605.033 229.843 607.661 226.588L676.002 137.032V145.856H614.233C610.102 145.856 606.91 144.792 604.657 142.664C602.529 140.536 601.466 137.532 601.466 133.652C601.466 129.772 602.529 126.831 604.657 124.828C606.91 122.7 610.102 121.636 614.233 121.636H689.708C693.588 121.636 696.655 122.45 698.908 124.077C701.286 125.579 702.913 127.644 703.789 130.273C704.665 132.901 704.665 135.905 703.789 139.285C702.913 142.539 701.161 145.793 698.532 149.048L630.191 238.417V229.78H694.965C699.096 229.78 702.225 230.844 704.353 232.972C706.606 234.975 707.732 237.916 707.732 241.796C707.732 245.802 706.606 248.868 704.353 250.996C702.225 252.999 699.096 254 694.965 254H616.486ZM750.252 256.065C743.493 256.065 737.422 254.751 732.04 252.122C726.658 249.494 722.465 245.927 719.461 241.421C716.457 236.915 714.955 231.845 714.955 226.213C714.955 219.454 716.707 214.134 720.212 210.254C723.716 206.249 729.411 203.433 737.297 201.805C745.182 200.053 755.634 199.177 768.651 199.177H778.602V213.821H768.839C762.455 213.821 757.261 214.197 753.256 214.948C749.375 215.574 746.559 216.7 744.807 218.327C743.18 219.955 742.366 222.208 742.366 225.086C742.366 228.591 743.555 231.47 745.933 233.723C748.437 235.976 752.004 237.102 756.635 237.102C760.265 237.102 763.457 236.289 766.21 234.662C769.089 232.909 771.342 230.594 772.969 227.715C774.596 224.711 775.41 221.331 775.41 217.576V195.985C775.41 190.478 774.158 186.598 771.655 184.345C769.152 181.967 764.896 180.777 758.888 180.777C755.509 180.777 751.816 181.216 747.811 182.092C743.931 182.843 739.612 184.157 734.856 186.034C732.102 187.286 729.662 187.599 727.534 186.973C725.406 186.222 723.779 184.971 722.652 183.218C721.526 181.341 720.963 179.338 720.963 177.21C720.963 174.957 721.588 172.829 722.84 170.827C724.092 168.699 726.157 167.134 729.036 166.133C734.919 163.755 740.426 162.128 745.558 161.251C750.815 160.375 755.634 159.937 760.015 159.937C769.652 159.937 777.538 161.377 783.671 164.255C789.929 167.009 794.623 171.327 797.752 177.21C800.881 182.968 802.446 190.415 802.446 199.552V241.233C802.446 245.864 801.32 249.431 799.067 251.935C796.814 254.438 793.559 255.69 789.304 255.69C785.048 255.69 781.731 254.438 779.353 251.935C777.1 249.431 775.973 245.864 775.973 241.233V234.286L777.288 235.413C776.537 239.668 774.909 243.361 772.406 246.49C770.028 249.494 766.961 251.872 763.206 253.624C759.451 255.252 755.133 256.065 750.252 256.065ZM837.863 289.485C833.232 289.485 829.665 288.233 827.162 285.73C824.783 283.352 823.594 279.784 823.594 275.028V174.582C823.594 169.951 824.783 166.446 827.162 164.068C829.665 161.564 833.107 160.313 837.488 160.313C842.119 160.313 845.624 161.564 848.002 164.068C850.38 166.446 851.569 169.951 851.569 174.582V187.349L849.504 180.026C851.381 174.018 855.136 169.2 860.769 165.57C866.527 161.815 873.098 159.937 880.483 159.937C888.493 159.937 895.503 161.877 901.511 165.757C907.644 169.638 912.4 175.145 915.78 182.279C919.159 189.414 920.849 197.925 920.849 207.813C920.849 217.702 919.159 226.276 915.78 233.535C912.4 240.795 907.706 246.365 901.698 250.245C895.69 254.125 888.618 256.065 880.483 256.065C873.223 256.065 866.777 254.313 861.144 250.808C855.512 247.178 851.694 242.485 849.692 236.727H851.945V275.028C851.945 279.784 850.693 283.352 848.19 285.73C845.811 288.233 842.369 289.485 837.863 289.485ZM872.034 234.849C876.039 234.849 879.544 233.848 882.548 231.845C885.677 229.843 888.055 226.901 889.682 223.021C891.435 219.016 892.311 213.947 892.311 207.813C892.311 198.676 890.433 191.98 886.678 187.724C882.923 183.343 878.042 181.153 872.034 181.153C868.029 181.153 864.461 182.092 861.332 183.969C858.328 185.847 855.95 188.788 854.198 192.793C852.445 196.674 851.569 201.68 851.569 207.813C851.569 216.951 853.447 223.772 857.202 228.278C860.957 232.659 865.901 234.849 872.034 234.849Z" fill="#F5B72E"/>
</svg>
